<svg
    class="ruta-transporte"
    viewBox="0 0 1200 240"
    xmlns="http://www.w3.org/2000/svg"
    role="img"
    aria-label="Ruta de transporte: Iglesia, Finca, Majadahonda y Madrid"
>
    <defs>
        <style>
            .ink { fill: none; stroke: currentColor; stroke-width: 3; stroke-linecap: round;
            stroke-linejoin: round; }
            .soft { opacity: .55; }
            .dot { fill: currentColor; opacity: .55; }
            .label { font: 500 22px/1.2 system-ui, -apple-system, Segoe UI, Roboto, Arial; fill:
            currentColor; }
            .sublabel { font: 400 16px/1.2 system-ui, -apple-system, Segoe UI, Roboto, Arial; fill:
            currentColor; opacity: .7; }
        </style>
    </defs>

    <path class="ink soft"
        d="M110 115 C 240 45, 360 45, 470 115 S 720 195, 880 115 S 1050 45, 1090 115" />

    <circle class="dot" cx="110" cy="115" r="6" />
    <circle class="dot" cx="470" cy="115" r="6" />
    <circle class="dot" cx="820" cy="135" r="6" />
    <circle class="dot" cx="1090" cy="115" r="6" />

    <g transform="translate(42,34)">
        <path class="ink soft" d="M30 95 H150" />

        <path class="ink" d="M40 95 V52 H140 V95" />

        <path class="ink" d="M78 52 V38 H102 V52" />

        <path class="ink" d="M70 38 C70 26,110 26,110 38" />
        <path class="ink" d="M90 26 V18" />
        <path class="ink" d="M86 18 H94" />

        <path class="ink" d="M70 52 H110" />
        <path class="ink" d="M70 52 V58" />
        <path class="ink" d="M110 52 V58" />

        <path class="ink" d="M80 95 V72" />
        <path class="ink" d="M100 95 V72" />
        <path class="ink" d="M80 72 C80 62,100 62,100 72" />

        <path class="ink soft" d="M86 68 V60 H94 V68" />

        <path class="ink" d="M50 90 V70 H60 V90" />
        <path class="ink" d="M120 90 V70 H130 V90" />

        <path class="ink soft" d="M52 78 H62" />
        <path class="ink soft" d="M118 78 H128" />
        <text class="label" x="20" y="125">Ceremonia</text>
        <text class="sublabel" x="20" y="145">Parroquia Santa María</text>
    </g>

    <g transform="translate(388,38)">
        <path class="ink soft" d="M30 90 H155" />

        <path class="ink" d="M40 90 V58 L62 44 H123 L145 58 V90 Z" />

        <path class="ink" d="M58 44 L66 36 H119 L127 44" />
        <path class="ink soft" d="M40 58 H145" />

        <path class="ink soft" d="M52 72 H70" />
        <path class="ink soft" d="M78 80 H96" />
        <path class="ink soft" d="M104 70 H128" />

        <path class="ink" d="M90 90 V72 H103 V90" />
        <path class="ink soft" d="M90 72 H103" />

        <path class="ink" d="M54 84 V70 H66 V84" />
        <path class="ink" d="M120 84 V68 H134 V84" />
        <path class="ink soft" d="M120 74 H134" />

        <path class="ink" d="M82 60 V52 H94 V60" />
        <path class="ink" d="M106 60 V52 H118 V60" />

        <path class="ink soft" d="M28 58 C60 48, 95 48, 160 58" />
        <circle class="dot" cx="45" cy="55" r="2.6" />
        <circle class="dot" cx="70" cy="52" r="2.6" />
        <circle class="dot" cx="95" cy="51" r="2.6" />
        <circle class="dot" cx="120" cy="52" r="2.6" />
        <circle class="dot" cx="145" cy="55" r="2.6" />

        <path class="ink" d="M165 90 V68" />
        <path class="ink soft"
            d="M165 68 C155 64,152 55,165 52
            C178 55,175 64,165 68 Z" />

        <text class="label" x="30" y="130">Banquete</text>
        <text class="sublabel" x="30" y="150">Finca el Gasco</text>
    </g>


    <g transform="translate(740,34)">
        <path class="ink" d="M80 95 C55 75,55 40,80 35 C105 40,105 75,80 95 Z" />
        <circle class="ink" cx="80" cy="55" r="10" />
        <path class="ink soft" d="M45 95 H115" />
        <text class="label" x="40" y="145">Parada</text>
        <text class="sublabel" x="40" y="165">Majadahonda</text>
    </g>

    <g transform="translate(1000,34)">
        <path class="ink soft" d="M0 95 H175" />

        <path class="ink" d="M10 95 V55 H45 V95" />
        <path class="ink soft" d="M18 63 H25 M30 63 H37" />
        <path class="ink soft" d="M18 73 H25 M30 73 H37" />
        <path class="ink soft" d="M18 83 H25 M30 83 H37" />

        <path class="ink" d="M55 95 V38 H95 V95" />
        <path class="ink" d="M70 38 V28" />
        <path class="ink" d="M65 28 H75" />
        <path class="ink soft" d="M62 48 H69 M78 48 H85" />
        <path class="ink soft" d="M62 58 H69 M78 58 H85" />
        <path class="ink soft" d="M62 68 H69 M78 68 H85" />
        <path class="ink soft" d="M62 78 H69 M78 78 H85" />
        <path class="ink soft" d="M62 88 H69 M78 88 H85" />

        <path class="ink" d="M105 95 V60 H135 V95" />
        <path class="ink soft" d="M112 70 H118 M122 70 H128" />
        <path class="ink soft" d="M112 80 H118 M122 80 H128" />
        <path class="ink soft" d="M112 90 H118 M122 90 H128" />

        <path class="ink" d="M145 95 V48 H170 V95" />
        <path class="ink soft" d="M152 58 H158 M160 58 H166" />
        <path class="ink soft" d="M152 68 H158 M160 68 H166" />
        <path class="ink soft" d="M152 78 H158 M160 78 H166" />
        <path class="ink" d="M157 95 V82 H163 V95" />

        <text class="label" x="5" y="125">Fin</text>
        <text class="sublabel" x="5" y="145">Madrid</text>
    </g>

</svg>